<svg width="22" height="22" viewBox="0 0 22 22" fill="none" xmlns="http://www.w3.org/2000/svg">
<rect x="0.7" y="0.7" width="20.6" height="20.6" rx="3.3" stroke="white" stroke-width="1.4"/>
<path d="M7.1966 15.1C6.40327 15.1 5.7366 14.9533 5.1966 14.66C4.6566 14.3667 4.24993 13.95 3.9766 13.41C3.70327 12.87 3.5666 12.23 3.5666 11.49C3.5666 10.7433 3.71327 10.1 4.0066 9.56C4.29993 9.01333 4.71993 8.59333 5.2666 8.3C5.81994 8 6.48327 7.85 7.2566 7.85C7.76994 7.85 8.21994 7.92 8.6066 8.06C8.99327 8.19333 9.33327 8.39 9.6266 8.65L9.1966 9.65C8.98327 9.48333 8.77994 9.35 8.5866 9.25C8.39327 9.15 8.19327 9.08 7.9866 9.04C7.77994 8.99333 7.53994 8.97 7.2666 8.97C6.49327 8.97 5.9066 9.19 5.5066 9.63C5.11327 10.0633 4.9166 10.6867 4.9166 11.5C4.9166 12.3133 5.10327 12.9333 5.4766 13.36C5.8566 13.7867 6.44993 14 7.2566 14C7.52994 14 7.80327 13.9733 8.0766 13.92C8.3566 13.8667 8.62994 13.79 8.8966 13.69L8.6566 14.23V12.12H7.0066V11.18H9.7266V14.57C9.39994 14.7367 9.00994 14.8667 8.5566 14.96C8.10327 15.0533 7.64994 15.1 7.1966 15.1ZM11.1989 15V7.95H12.4889V15H11.1989ZM14.0407 15V7.95H18.6907V8.96H15.3307V10.96H18.4607V11.97H15.3307V15H14.0407Z" fill="white"/>
</svg>
