<svg width="27" height="27" viewBox="0 0 27 27" fill="none" xmlns="http://www.w3.org/2000/svg">
<path fill-rule="evenodd" clip-rule="evenodd" d="M5.94215 26.0475H16.6286C17.0105 26.0536 17.3798 25.9163 17.6586 25.6647C17.9269 25.404 18.0798 25.0533 18.0853 24.6863C18.0907 24.3192 18.0853 21.9474 18.0853 21.9474C18.149 20.1642 17.4773 18.4291 16.2172 17.1217C14.9571 15.8144 13.2111 15.0409 11.361 14.9708C11.1403 14.9566 6.92799 14.432 4.20591 11.596C3.94881 11.3421 3.60231 11.1903 3.23479 11.1705C2.86091 11.1489 2.49255 11.2656 2.20482 11.4967L0.420263 13.1152C0.183631 13.3491 0.0381007 13.6547 0.00827504 13.9801C-0.0307199 14.3331 0.069034 14.6873 0.287837 14.9728C1.66237 16.6567 2.57684 17.5957 4.51489 18.6455L4.5149 24.6863C4.52035 25.0533 4.67331 25.404 4.9416 25.6647C5.21296 25.9096 5.57043 26.0463 5.94215 26.0475ZM6.29529 24.2221V24.2891H6.46948L6.29529 24.2221Z" fill="white"/>
<path d="M6.29924 9.10327C7.36078 10.0997 8.78853 10.6506 10.2703 10.6354C11.7521 10.6506 13.1798 10.0997 14.2414 9.10327C15.303 8.10681 15.912 6.74582 15.9352 5.31787C15.912 3.88992 15.303 2.52893 14.2414 1.53247C13.1798 0.536004 11.7521 -0.0148641 10.2703 0.000305182C8.78853 -0.0148641 7.36078 0.536004 6.29924 1.53247C5.2377 2.52893 4.62873 3.88992 4.60547 5.31787C4.62873 6.74582 5.2377 8.10681 6.29924 9.10327Z" fill="white"/>
<path d="M20.9363 6.94141C21.6422 6.94141 22.2144 7.49285 22.2144 8.17308V10.6364H24.7705C25.4763 10.6364 26.0485 11.1879 26.0485 11.8681C26.0485 12.5484 25.4763 13.0997 24.7705 13.0997H22.2144V15.5631C22.2144 16.2433 21.6422 16.7948 20.9363 16.7948C20.2305 16.7948 19.6583 16.2433 19.6583 15.5631V13.0997H17.1022C16.3964 13.0997 15.8242 12.5484 15.8242 11.8681C15.8242 11.1879 16.3964 10.6364 17.1022 10.6364H19.6583V8.17308C19.6583 7.49285 20.2305 6.94141 20.9363 6.94141Z" fill="white"/>
</svg>
