<svg width="20" height="19" viewBox="0 0 20 19" fill="none" xmlns="http://www.w3.org/2000/svg">
<path d="M9.61035 0.75C14.5121 0.75 18.4707 4.67567 18.4707 9.5C18.4707 14.3243 14.5121 18.25 9.61035 18.25C4.70869 18.2499 0.75 14.3243 0.75 9.5C0.75 4.67574 4.70869 0.75012 9.61035 0.75Z" stroke="black" stroke-width="1.5"/>
<path d="M9.87598 5.2793C10.1963 5.27948 10.459 5.53747 10.459 5.8584V8.92285H13.7773C14.0978 8.92285 14.3613 9.18 14.3613 9.50098C14.3613 9.82202 14.0979 10.0801 13.7773 10.0801H10.459V13.1436C10.459 13.4645 10.1963 13.7225 9.87598 13.7227C9.55545 13.7227 9.29199 13.4646 9.29199 13.1436V10.0801H5.97363C5.65311 10.0801 5.38965 9.82202 5.38965 9.50098C5.38972 9.18 5.65315 8.92285 5.97363 8.92285H9.29199V5.8584C9.29199 5.53735 9.55545 5.2793 9.87598 5.2793Z" fill="black" stroke="black" stroke-width="0.3"/>
</svg>
