<svg width="89" height="89" viewBox="0 0 89 89" fill="none" xmlns="http://www.w3.org/2000/svg">
<path d="M73.5842 15.6273C73.5751 15.6266 73.5666 15.6224 73.5605 15.6156L48.322 0.575807C47.9714 0.387539 47.5786 0.294437 47.1819 0.305583C46.7852 0.316728 46.3982 0.431739 46.0585 0.6394C45.7188 0.847061 45.4381 1.14028 45.2437 1.49047C45.0493 1.84065 44.9479 2.23585 44.9494 2.63751L44.8789 13.7033C44.877 14.121 44.984 14.5318 45.189 14.8944C45.394 15.2569 45.6898 15.5584 46.0466 15.7683L57.3567 22.9425L69.8119 15.7823C70.3801 15.452 71.0184 15.2644 71.673 15.2354C72.3276 15.2063 72.9796 15.3365 73.5742 15.6151L73.5842 15.6273Z" fill="url(#paint0_linear_385_717)"/>
<path d="M84.293 43.9248L64.3764 36.0273L46.5712 46.3877C45.7812 46.8412 43.0527 46.6301 43.0527 46.6301L62.3329 54.61L79.9174 44.4993C80.5709 44.1159 81.2932 43.8679 82.0423 43.7695C82.7914 43.6712 83.5523 43.7245 84.2809 43.9264L84.293 43.9248Z" fill="url(#paint1_linear_385_717)"/>
<path d="M84.293 43.9258L85.5195 44.4033C85.1301 44.1971 84.7186 44.0368 84.293 43.9258Z" fill="#9C01FF"/>
<path d="M85.5198 44.4184L84.2932 43.9408C83.5646 43.7389 82.8037 43.6856 82.0546 43.7839C81.3055 43.8823 80.5832 44.1303 79.9297 44.5137L62.3452 54.6249L61.7319 54.9832L47.4853 63.1743C46.6056 63.685 45.6091 63.9537 44.595 63.9537C43.5808 63.9537 42.5844 63.685 41.7047 63.1743L27.2455 54.8662L9.24925 44.5142C5.22763 42.1984 0.330655 45.2665 0.330655 50.1009V59.841C0.3248 60.9653 0.610313 62.0715 1.15871 63.0492C1.70711 64.0269 2.49922 64.842 3.45602 65.4132C3.46508 65.414 3.47352 65.4181 3.47969 65.4249L41.703 87.3887C42.5827 87.8994 43.5792 88.1681 44.5933 88.1681C45.6074 88.1681 46.6039 87.8994 47.4836 87.3887L85.7069 65.4249C86.6711 64.8565 87.47 64.0407 88.0229 63.0597C88.5759 62.0788 88.8632 60.9675 88.856 59.8382V50.1003C88.8712 48.9373 88.5691 47.7927 87.9829 46.7923C87.3967 45.792 86.5491 44.9747 85.5335 44.4306L85.5198 44.4184Z" fill="url(#paint2_linear_385_717)"/>
<path d="M73.8086 15.7234C73.7376 15.6877 73.655 15.6515 73.5846 15.6158C72.9899 15.3372 72.3379 15.207 71.6833 15.2361C71.0287 15.2652 70.3905 15.4527 69.8222 15.783L57.3681 22.9444L56.8259 23.2547L46.6476 29.1055C46.019 29.4694 45.3074 29.6609 44.5832 29.6609C43.859 29.6609 43.1473 29.4694 42.5187 29.1055L32.2006 23.1711L19.3452 15.7824C16.4791 14.1353 12.9766 16.3196 12.9766 19.7693V26.7167C12.9718 27.5188 13.1752 28.3082 13.5663 29.0058C13.9575 29.7034 14.5229 30.2848 15.2057 30.6919H15.2173L42.5071 46.377C42.9868 46.6543 43.5159 46.8329 44.064 46.9024C44.9546 47.0142 45.857 46.8298 46.635 46.377L64.4909 36.1114L73.9259 30.6919C74.6123 30.2849 75.1807 29.7022 75.5741 29.0024C75.9674 28.3025 76.1717 27.5102 76.1665 26.705V19.7571C76.1762 18.9274 75.9601 18.111 75.542 17.3973C75.1239 16.6836 74.5198 16.1 73.796 15.7106L73.8086 15.7234Z" fill="url(#paint3_linear_385_717)"/>
<defs>
<linearGradient id="paint0_linear_385_717" x1="59.2315" y1="20.4523" x2="52.386" y2="6.96102" gradientUnits="userSpaceOnUse">
<stop stop-color="#7E32EF"/>
<stop offset="1" stop-color="#B07CFF"/>
</linearGradient>
<linearGradient id="paint1_linear_385_717" x1="61.3634" y1="56.97" x2="58.7216" y2="41.1915" gradientUnits="userSpaceOnUse">
<stop stop-color="#7E32EF"/>
<stop offset="1" stop-color="#B07CFF"/>
</linearGradient>
<linearGradient id="paint2_linear_385_717" x1="78.3189" y1="113.3" x2="33.6306" y2="57.2343" gradientUnits="userSpaceOnUse">
<stop stop-color="#6812E8"/>
<stop offset="1" stop-color="#B07CFF"/>
</linearGradient>
<linearGradient id="paint3_linear_385_717" x1="68.6451" y1="64.8675" x2="36.7598" y2="24.8504" gradientUnits="userSpaceOnUse">
<stop stop-color="#6812E8"/>
<stop offset="1" stop-color="#B07CFF"/>
</linearGradient>
</defs>
</svg>
