<svg width="22" height="22" viewBox="0 0 22 22" fill="none" xmlns="http://www.w3.org/2000/svg">
<path d="M17.4127 15.3026C18.3013 14.8013 18.9018 14.2044 19.31 13.4166C19.8144 12.5333 20.0066 11.5307 20.0066 9.83568V6.06375C20.0066 4.55975 19.9105 4.05841 19.5983 3.46159C19.31 2.98413 18.9978 2.67378 18.5175 2.3873C17.917 2.07695 17.3166 1.98146 15.8996 1.98146H6.10043C4.58733 1.98146 4.10698 2.07695 3.50654 2.3873C3.00218 2.67378 2.68995 2.98413 2.40174 3.46159C2.08952 4.05841 1.99345 4.65524 1.99345 6.06375V11.7217C1.99345 13.2257 2.08952 13.727 2.40174 14.3238C2.71397 14.9206 3.00218 15.2071 3.50654 15.5175C4.10698 15.8039 4.70742 15.8994 6.10043 15.8994H9.99129C11.0961 15.8994 12.0088 16.8066 12.0088 17.9048V19.2894C14.5066 17.3079 16.3079 15.9949 17.4127 15.3026ZM12.297 21.6767C11.6965 22.178 10.8079 22.0825 10.3035 21.4857C10.1114 21.1754 9.99129 20.8889 9.99129 20.5785V17.9048H6.10043C4.29912 17.9048 3.50654 17.6899 2.49781 17.1886C1.70524 16.8066 0.984714 16.1143 0.600436 15.3026C0.192139 14.4193 0 13.5121 0 11.8171V6.06375C0 4.27327 0.192139 3.46159 0.696505 2.48279C1.1048 1.67111 1.80131 0.978794 2.59388 0.596826C3.50654 0.190984 4.39519 0 6.10043 0H15.8035C17.6048 0 18.3974 0.190984 19.4061 0.692318C20.1987 1.07429 20.9192 1.79048 21.3035 2.57829C21.8079 3.46159 22 4.36876 22 6.06375V9.74019C22 11.7217 21.7118 13.0108 21.1114 14.2044C20.5109 15.3026 19.5983 16.2098 18.5175 16.9021C17.3166 17.6899 15.2991 19.2894 12.297 21.6767Z" fill="black"/>
</svg>
