<svg width="27" height="22" viewBox="0 0 27 22" fill="none" xmlns="http://www.w3.org/2000/svg">
<path fill-rule="evenodd" clip-rule="evenodd" d="M0.367126 3.41974C0.188801 3.87343 0.0957031 4.35989 0.0957031 4.85553V17.9677C0.0957031 19.0114 0.510045 20.0119 1.24826 20.7488C1.98517 21.487 2.98563 21.9014 4.02936 21.9014C8.57011 21.9014 17.8457 21.9014 22.3864 21.9014C23.4301 21.9014 24.4306 21.487 25.1675 20.7488C25.9057 20.0119 26.3201 19.0114 26.3201 17.9677V4.85553C26.3201 4.35989 26.227 3.87343 26.0486 3.41974L15.5681 11.2805C14.169 12.3295 12.2468 12.3295 10.8477 11.2805L0.367126 3.41974ZM2.08876 1.43325L12.4211 9.18255C12.8879 9.53264 13.5278 9.53264 13.9946 9.18255L24.327 1.43325C23.7396 1.10151 23.0722 0.921875 22.3864 0.921875C17.8457 0.921875 8.57011 0.921875 4.02936 0.921875C3.34359 0.921875 2.67619 1.10151 2.08876 1.43325Z" fill="white"/>
</svg>
