<svg width="23" height="23" viewBox="0 0 23 23" fill="none" xmlns="http://www.w3.org/2000/svg">
<path d="M17.25 1.34167C17.25 0.600685 16.6064 0 15.8125 0C15.0186 0 14.375 0.600685 14.375 1.34167V5.36667C14.375 6.10765 15.0186 6.70833 15.8125 6.70833C16.6064 6.70833 17.25 6.10765 17.25 5.36667V1.34167Z" fill="#A2ABBB"/>
<path d="M8.625 1.34167C8.625 0.600685 7.98141 0 7.1875 0C6.39359 0 5.75 0.600685 5.75 1.34167V5.36667C5.75 6.10765 6.39359 6.70833 7.1875 6.70833C7.98141 6.70833 8.625 6.10765 8.625 5.36667V1.34167Z" fill="#A2ABBB"/>
<path fill-rule="evenodd" clip-rule="evenodd" d="M12.9375 2.875H10.0625V5.43636C10.0625 7.05305 8.77532 8.36364 7.1875 8.36364C5.59968 8.36364 4.3125 7.05305 4.3125 5.43636V2.875H2.875C1.28718 2.875 0 4.18558 0 5.80227V20.0727C0 21.6895 1.28718 23 2.875 23H20.125C21.7129 23 23 21.6895 23 20.0727V5.80227C23 4.18558 21.7129 2.875 20.125 2.875H18.6875V5.43636C18.6875 7.05305 17.4004 8.36364 15.8125 8.36364C14.2247 8.36364 12.9375 7.05305 12.9375 5.43636V2.875ZM4.3125 11.6568C4.3125 11.4547 4.4734 11.2909 4.67188 11.2909H6.82812C7.0266 11.2909 7.1875 11.4547 7.1875 11.6568V13.8523C7.1875 14.0544 7.0266 14.2182 6.82812 14.2182H4.67188C4.4734 14.2182 4.3125 14.0544 4.3125 13.8523V11.6568ZM10.4219 11.2909C10.2234 11.2909 10.0625 11.4547 10.0625 11.6568V13.8523C10.0625 14.0544 10.2234 14.2182 10.4219 14.2182H12.5781C12.7766 14.2182 12.9375 14.0544 12.9375 13.8523V11.6568C12.9375 11.4547 12.7766 11.2909 12.5781 11.2909H10.4219ZM15.8125 11.6568C15.8125 11.4547 15.9734 11.2909 16.1719 11.2909H18.3281C18.5266 11.2909 18.6875 11.4547 18.6875 11.6568V13.8523C18.6875 14.0544 18.5266 14.2182 18.3281 14.2182H16.1719C15.9734 14.2182 15.8125 14.0544 15.8125 13.8523V11.6568ZM4.67188 15.6818C4.4734 15.6818 4.3125 15.8456 4.3125 16.0477V18.2432C4.3125 18.4453 4.4734 18.6091 4.67188 18.6091H6.82812C7.0266 18.6091 7.1875 18.4453 7.1875 18.2432V16.0477C7.1875 15.8456 7.0266 15.6818 6.82812 15.6818H4.67188ZM10.0625 16.0477C10.0625 15.8456 10.2234 15.6818 10.4219 15.6818H12.5781C12.7766 15.6818 12.9375 15.8456 12.9375 16.0477V18.2432C12.9375 18.4453 12.7766 18.6091 12.5781 18.6091H10.4219C10.2234 18.6091 10.0625 18.4453 10.0625 18.2432V16.0477ZM16.1719 15.6818C15.9734 15.6818 15.8125 15.8456 15.8125 16.0477V18.2432C15.8125 18.4453 15.9734 18.6091 16.1719 18.6091H18.3281C18.5266 18.6091 18.6875 18.4453 18.6875 18.2432V16.0477C18.6875 15.8456 18.5266 15.6818 18.3281 15.6818H16.1719Z" fill="#A2ABBB"/>
</svg>
