<svg width="24" height="24" viewBox="0 0 24 24" fill="none" xmlns="http://www.w3.org/2000/svg">
<path d="M9 4C9 3.44772 9.33579 3 9.75 3H20.25C20.6642 3 21 3.44772 21 4C21 4.55228 20.6642 5 20.25 5H9.75C9.33579 5 9 4.55228 9 4Z" fill="#A2ABBB"/>
<path d="M9 7C9 6.44772 9.33579 6 9.75 6H20.25C20.6642 6 21 6.44772 21 7C21 7.55228 20.6642 8 20.25 8H9.75C9.33579 8 9 7.55228 9 7Z" fill="#A2ABBB"/>
<path d="M7 5.5C7 6.88072 6.10457 8 5 8C3.89543 8 3 6.88072 3 5.5C3 4.11928 3.89543 3 5 3C6.10457 3 7 4.11928 7 5.5Z" fill="#A2ABBB"/>
<path fill-rule="evenodd" clip-rule="evenodd" d="M3 0C1.34315 0 0 1.34315 0 3V21C0 22.6569 1.34315 24 3 24H21C22.6569 24 24 22.6569 24 21V3C24 1.34315 22.6569 0 21 0H3ZM3 1.5C2.17158 1.5 1.5 2.17158 1.5 3V9H22.5V3C22.5 2.17158 21.8284 1.5 21 1.5H3Z" fill="#A2ABBB"/>
</svg>
