<svg width="25" height="22" viewBox="0 0 25 22" fill="none" xmlns="http://www.w3.org/2000/svg">
<path d="M17.4289 0C21.2911 0 24.4444 3.05556 24.4444 6.91778C24.4444 8.43333 23.8333 10.5844 23.2222 11.7089C22.1956 13.4444 20.68 15.1556 18.8467 16.8911C17.5267 18.0156 16.2067 19.14 14.8622 20.0689C14.3733 20.3622 13.9578 20.68 13.5422 20.9733C13.3467 21.0711 13.1511 21.2911 12.9311 21.2911C12.7356 21.2911 12.54 21.3889 12.2222 21.3889C11.9044 21.3889 11.6111 21.2911 11.5133 21.1689C11.4156 21.0711 11.1956 20.9733 11 20.8756C10.5844 20.68 10.1933 20.3622 9.68 20.0689C8.36 19.14 7.04 18.1133 5.81778 16.9889C3.86222 15.2778 2.24889 13.4444 1.22222 11.7089C0.611111 10.5844 0 8.43333 0 6.91778C0 3.05556 3.15333 0 7.04 0C9.06889 0 10.9022 0.806667 12.2222 2.22444C13.5422 0.806667 15.3756 0 17.4289 0ZM12.4178 19.14C12.8333 18.9444 13.2489 18.6267 13.64 18.3333C14.9844 17.4044 16.2067 16.3778 17.4289 15.3756C19.14 13.8356 20.4844 12.2222 21.3889 10.6822C21.9022 9.87556 22.3178 8.14 22.3178 7.01556C22.4156 4.27778 20.1667 2.02889 17.4289 2.02889C15.5956 2.02889 13.9578 2.93333 13.1511 4.47333L12.2222 5.98889L11.3178 4.47333C10.4867 2.93333 8.87333 2.02889 7.04 2.02889C4.27778 2.02889 2.02889 4.27778 2.02889 6.91778C2.02889 8.04222 2.54222 9.87556 2.95778 10.5844C3.86222 12.2222 5.30444 13.8356 7.13778 15.3756C8.36 16.3778 9.58222 17.4044 10.8044 18.2111C11.1956 18.5289 11.6111 18.8222 12.0267 19.0422C12.1244 19.0422 12.1244 19.14 12.2222 19.14C12.32 19.2378 12.32 19.14 12.4178 19.14Z" fill="black"/>
</svg>
