<svg width="43" height="41" viewBox="0 0 43 41" fill="none" xmlns="http://www.w3.org/2000/svg">
<path d="M34.9878 7.25643C34.9836 7.25607 34.9797 7.25413 34.9768 7.25098L23.2368 0.255021C23.0738 0.167445 22.8911 0.124138 22.7065 0.129323C22.522 0.134507 22.342 0.188006 22.1839 0.284602C22.0259 0.381198 21.8954 0.517593 21.8049 0.680486C21.7145 0.843379 21.6674 1.02721 21.668 1.21405L21.6353 6.36142C21.6344 6.55573 21.6841 6.74684 21.7795 6.91549C21.8748 7.08413 22.0125 7.22435 22.1784 7.322L27.4395 10.6592L33.2331 7.32848C33.4975 7.17485 33.7943 7.08762 34.0988 7.07409C34.4034 7.06056 34.7066 7.12113 34.9832 7.25072L34.9878 7.25643Z" fill="url(#paint0_linear_385_597)"/>
<path d="M39.969 20.4197L30.7046 16.7461L22.4223 21.5653C22.0548 21.7763 20.7856 21.6781 20.7856 21.6781L29.754 25.39L37.9337 20.6869C38.2377 20.5086 38.5737 20.3932 38.9221 20.3475C39.2706 20.3017 39.6245 20.3265 39.9634 20.4205L39.969 20.4197Z" fill="url(#paint1_linear_385_597)"/>
<path d="M39.9692 20.4219L40.5398 20.644C40.3587 20.5481 40.1672 20.4735 39.9692 20.4219Z" fill="#9C01FF"/>
<path d="M40.5399 20.6499L39.9693 20.4278C39.6304 20.3339 39.2765 20.3091 38.928 20.3548C38.5796 20.4006 38.2436 20.5159 37.9396 20.6943L29.7599 25.3976L29.4747 25.5643L22.8477 29.3745C22.4385 29.612 21.9749 29.737 21.5032 29.737C21.0315 29.737 20.568 29.612 20.1588 29.3745L13.4329 25.5099L5.06172 20.6945C3.19101 19.6173 0.913127 21.0444 0.913127 23.2932V27.824C0.910404 28.3469 1.04321 28.8615 1.29831 29.3163C1.5534 29.7711 1.92186 30.1502 2.36693 30.4159C2.37114 30.4163 2.37507 30.4182 2.37794 30.4214L20.158 40.6381C20.5672 40.8757 21.0307 41.0006 21.5024 41.0006C21.9742 41.0006 22.4377 40.8757 22.8469 40.6381L40.6269 30.4214C41.0754 30.157 41.4471 29.7775 41.7043 29.3212C41.9615 28.8649 42.0951 28.348 42.0918 27.8227V23.293C42.0989 22.752 41.9583 22.2195 41.6856 21.7542C41.413 21.2889 41.0187 20.9087 40.5463 20.6556L40.5399 20.6499Z" fill="url(#paint2_linear_385_597)"/>
<path d="M35.0922 7.30323C35.0591 7.28664 35.0207 7.2698 34.988 7.25321C34.7113 7.12361 34.4081 7.06304 34.1036 7.07657C33.7991 7.0901 33.5022 7.17734 33.2379 7.33097L27.4447 10.6622L27.1924 10.8065L22.4579 13.5281C22.1655 13.6974 21.8345 13.7864 21.4976 13.7864C21.1607 13.7864 20.8297 13.6974 20.5373 13.5281L15.7377 10.7676L9.75785 7.33071C8.42467 6.56452 6.79545 7.58057 6.79545 9.18525V12.4169C6.7932 12.79 6.88779 13.1572 7.06976 13.4817C7.25172 13.8062 7.51469 14.0767 7.83234 14.266H7.83772L20.5319 21.5621C20.755 21.6911 21.0012 21.7742 21.2561 21.8066C21.6704 21.8585 22.0901 21.7727 22.452 21.5621L30.7579 16.787L35.1467 14.266C35.466 14.0767 35.7304 13.8057 35.9134 13.4801C36.0964 13.1546 36.1914 12.786 36.189 12.4115V9.17955C36.1935 8.79361 36.093 8.41386 35.8985 8.08186C35.704 7.74987 35.423 7.47843 35.0863 7.29727L35.0922 7.30323Z" fill="url(#paint3_linear_385_597)"/>
<defs>
<linearGradient id="paint0_linear_385_597" x1="28.3115" y1="9.50083" x2="25.1273" y2="3.22518" gradientUnits="userSpaceOnUse">
<stop stop-color="#7E32EF"/>
<stop offset="1" stop-color="#B07CFF"/>
</linearGradient>
<linearGradient id="paint1_linear_385_597" x1="29.3031" y1="26.4878" x2="28.0742" y2="19.1483" gradientUnits="userSpaceOnUse">
<stop stop-color="#7E32EF"/>
<stop offset="1" stop-color="#B07CFF"/>
</linearGradient>
<linearGradient id="paint2_linear_385_597" x1="37.1903" y1="52.6912" x2="16.403" y2="26.6114" gradientUnits="userSpaceOnUse">
<stop stop-color="#6812E8"/>
<stop offset="1" stop-color="#B07CFF"/>
</linearGradient>
<linearGradient id="paint3_linear_385_597" x1="32.6903" y1="30.1632" x2="17.8585" y2="11.5488" gradientUnits="userSpaceOnUse">
<stop stop-color="#6812E8"/>
<stop offset="1" stop-color="#B07CFF"/>
</linearGradient>
</defs>
</svg>
