<svg width="26" height="21" viewBox="0 0 26 21" fill="none" xmlns="http://www.w3.org/2000/svg">
<path d="M7.71777 0.859375L7.7168 0.860352L23.2803 2.12891H23.2822C23.8543 2.18324 24.3725 2.45607 24.752 2.89062C25.1355 3.32884 25.2979 3.87574 25.2705 4.44336V4.44824L24.3828 15.3662C24.3009 16.4864 23.3465 17.3572 22.2285 17.3574H22.0625L22.0508 17.3555L21.9062 17.3301C21.6151 17.2984 21.3554 17.0623 21.3926 16.7334C21.4245 16.4425 21.6615 16.1835 21.9902 16.2207H21.9951L22.1416 16.2432C22.6921 16.2852 23.2264 15.8396 23.2705 15.2637L24.1592 4.37109C24.1806 4.08106 24.0926 3.81429 23.9121 3.58887C23.7563 3.39429 23.5522 3.26966 23.3105 3.22656L23.2051 3.21289L7.64062 1.94336V1.94238C7.35173 1.92087 7.08526 2.00862 6.86035 2.1875C6.63312 2.3938 6.50374 2.63824 6.48145 2.92383V2.9248L6.35449 4.37207V4.375C6.32285 4.66617 6.08578 4.92586 5.75684 4.88867C5.46602 4.85664 5.20699 4.61962 5.24414 4.29102L5.37109 2.84766V2.84668C5.42549 2.27474 5.69837 1.75728 6.13281 1.37793C6.56938 0.996752 7.14199 0.804902 7.71777 0.859375Z" fill="white" stroke="white" stroke-width="0.3"/>
<path d="M18.6465 5.45508C19.8212 5.45518 20.8018 6.43656 20.8018 7.61133V18.5283C20.8018 19.7008 19.8473 20.6845 18.6465 20.6846H3.00586C1.83331 20.6846 0.849609 19.7292 0.849609 18.5283V7.61133C0.849609 6.43878 1.805 5.45508 3.00586 5.45508H18.6465ZM1.93652 15.5947V18.5537C1.9366 19.1542 2.42621 19.6221 3.00586 19.6221H18.6465C19.2196 19.622 19.6893 19.1357 19.6904 18.5527V17.8535L15.7002 13.8887L13.4004 16.166L14.2676 17.0332H14.2666C14.4636 17.2622 14.4748 17.606 14.2598 17.8213C14.1622 17.9189 14.0235 17.9921 13.874 17.9922C13.7235 17.9922 13.5857 17.9195 13.4883 17.8223L6.58594 10.9697L1.93652 15.5947ZM3.00488 6.56738C2.43244 6.56763 1.96191 7.05505 1.96191 7.63672V14.0283L6.22656 9.78906C6.43725 9.5782 6.78534 9.57931 6.99609 9.79004L12.6279 15.3965L15.3154 12.71L15.4004 12.6406C15.6108 12.5018 15.9002 12.5252 16.085 12.709L19.7148 16.29V7.63672C19.7148 7.03627 19.2261 6.56748 18.6465 6.56738H3.00488Z" fill="white" stroke="white" stroke-width="0.3"/>
<path d="M12.5029 7.94336C13.7025 7.94338 14.6846 8.92541 14.6846 10.125C14.6846 11.3246 13.7025 12.3066 12.5029 12.3066C11.3023 12.3066 10.3213 11.3256 10.3213 10.125C10.3213 8.92539 11.3033 7.94336 12.5029 7.94336ZM12.5029 9.05664C11.9231 9.05664 11.4336 9.52455 11.4336 10.126C11.4336 10.7057 11.9024 11.1953 12.5029 11.1953C13.0826 11.1953 13.5722 10.7265 13.5723 10.126C13.5723 9.54629 13.1034 9.05666 12.5029 9.05664Z" fill="white" stroke="white" stroke-width="0.3"/>
</svg>
