<svg width="27" height="27" viewBox="0 0 27 27" fill="none" xmlns="http://www.w3.org/2000/svg">
<path d="M22.8048 17.657V20.4979C22.8048 20.6021 22.8048 20.6021 22.7006 20.7064C22.5963 20.8106 22.3617 20.9149 22.2575 20.8106L18.3481 17.8916H12.067C10.1123 17.8916 9.46074 17.657 8.67886 17.3443C7.92304 17.0055 7.37573 16.3539 7.06297 15.7023C6.75022 15.0508 6.51566 14.2949 6.51566 12.3403V6.03309C6.51566 4.07839 6.72416 3.42683 7.06297 2.67101C7.40179 1.91519 8.02729 1.47213 8.67886 1.05513C9.33042 0.638126 10.1123 0.507812 12.067 0.507812H19.1039C21.5017 0.507812 22.3617 0.716314 23.3521 1.26363C24.2122 1.70669 24.968 2.46251 25.4111 3.32258C25.8541 4.18264 26.0626 5.06877 26.0626 7.46654V12.3403C26.0626 14.2949 25.8541 14.9465 25.5153 15.7023C25.1765 16.4581 24.551 17.0055 23.8994 17.3443C23.5606 17.4485 23.2479 17.5528 22.8048 17.657ZM18.3481 20.0548C18.3481 20.159 18.1396 20.7064 17.9311 21.1494C17.5923 21.9052 16.9407 22.4526 16.2891 22.7653C15.6376 23.0781 14.8818 23.3126 12.9271 23.3126H7.61029L3.80514 26.3619C3.70089 26.4662 3.46633 26.4662 3.36208 26.2577C3.25783 26.2577 3.25783 26.1274 3.25783 26.0231V23.1041C2.81476 22.9999 2.50201 22.8696 2.1632 22.6611C1.40738 22.3222 0.860067 21.6707 0.547315 21.0191C0.234564 20.3675 0 19.6117 0 17.7613V13.7476C0 11.6887 0.208501 11.0371 0.547315 10.2813C0.88613 9.52549 1.51163 9.08242 2.1632 8.63936C2.81476 8.3266 3.46633 8.1181 4.89978 8.1181V12.3403C4.89978 14.3992 5.10828 15.3896 5.65559 16.4581C6.20291 17.4485 6.95872 18.2043 7.92304 18.7517C9.01767 19.299 9.98199 19.5075 12.067 19.5075H17.3838C17.6965 19.5075 18.0353 19.6117 18.2438 19.9505L18.3481 20.0548Z" fill="white"/>
</svg>
