<svg width="25" height="26" viewBox="0 0 25 26" fill="none" xmlns="http://www.w3.org/2000/svg">
<path d="M9.66156 20.2643C5.1037 20.6172 1.69214 21.513 1.69214 22.1916C1.69214 22.9788 6.5775 24.336 12.5 24.336C18.4225 24.336 23.3079 22.9788 23.3079 22.1916C23.3079 21.513 19.8963 20.6172 15.3384 20.2643C15.1201 21.6215 13.9738 22.7616 12.5 22.7616C11.0262 22.7616 9.8799 21.7301 9.66156 20.2643ZM24.4542 20.9429C24.7817 21.2958 25 21.7301 25 22.1916C25 24.5803 19.5415 25.9375 12.5 25.9375C5.45851 25.9375 0 24.6889 0 22.3001C0 21.8658 0.10917 21.513 0.436681 21.1872C2.26528 19.4771 3.16593 16.6541 3.16593 12.5824V12.4739C3.16593 8.15791 6.14082 4.54771 10.1255 3.54336C10.1255 3.40764 10.1255 3.29906 10.1255 3.19049C10.1255 1.94184 11.1354 0.9375 12.3909 0.9375C13.6463 0.9375 14.6561 1.94184 14.6561 3.19049C14.6561 3.29906 14.6561 3.40764 14.6561 3.54336C18.6408 4.54771 21.5884 8.15791 21.5884 12.4739C21.8341 16.437 22.6256 19.26 24.4542 20.9429Z" fill="white"/>
</svg>
