<svg width="24" height="33" viewBox="0 0 24 33" fill="none" xmlns="http://www.w3.org/2000/svg">
<path d="M20.4601 13.9643H20.1342V9.06348C20.1342 4.574 16.5163 0.921875 12.0693 0.921875C7.62236 0.921875 4.00448 4.574 4.00448 9.06348V13.9643H3.6786C1.96221 13.9643 0.569336 15.3695 0.569336 17.1033V29.7829C0.569336 31.5167 1.96187 32.9219 3.6786 32.9219H20.4601C22.1765 32.9219 23.5693 31.5171 23.5693 29.7829V17.1033C23.569 15.3695 22.1765 13.9643 20.4601 13.9643ZM7.05012 9.06348C7.05012 6.26956 9.30153 3.99663 12.0693 3.99663C14.8371 3.99663 17.0886 6.26956 17.0886 9.06348V13.9643H7.05012V9.06348ZM13.3668 24.8708V28.1673C13.3668 28.8905 12.7857 29.4771 12.0693 29.4771C11.3529 29.4771 10.7719 28.8905 10.7719 28.1673V24.8708C9.73739 24.3785 9.02031 23.3194 9.02031 22.0881C9.02031 20.3878 10.3851 19.0096 12.0693 19.0096C13.7536 19.0096 15.1184 20.3878 15.1184 22.0881C15.1184 23.3194 14.4013 24.3782 13.3668 24.8708Z" fill="white"/>
</svg>
