<svg width="24" height="24" viewBox="0 0 24 24" fill="none" xmlns="http://www.w3.org/2000/svg">
<path d="M19.5116 4.04671C21.6361 6.17123 22.8069 8.99715 22.8068 12.0017C22.8068 15.0061 21.6361 17.8321 19.5116 19.9566C17.3871 22.0811 14.5611 23.2518 11.5566 23.2518C8.55216 23.2518 5.72621 22.0811 3.60169 19.9566C1.47717 17.8321 0.306461 15.0061 0.306461 12.0017C0.306461 8.99718 1.47717 6.17123 3.60169 4.04671C5.72621 1.92219 8.55216 0.751482 11.5566 0.751482C14.5612 0.751451 17.3871 1.92219 19.5116 4.04671ZM3.91105 4.95683C0.152937 9.03134 0.248052 15.4014 4.20245 19.3558C8.15686 23.3103 14.527 23.4054 18.6015 19.6473L3.91105 4.95683ZM12.9598 12.8041L19.2043 19.0486C20.2994 17.8613 21.067 16.4799 21.5072 15.0193L12.9598 12.8041ZM13.9459 1.88258C10.6838 1.11811 7.12458 1.9435 4.51043 4.35469L11.3433 11.1875L13.9459 1.88258ZM12.7589 11.8739L21.7178 14.1969C22.1796 12.0427 21.9529 9.77089 21.0391 7.73416L12.7589 11.8739ZM18.9108 4.64747C17.7079 3.44458 16.2821 2.59825 14.7649 2.10907L12.2237 11.1924L20.6606 6.97457C20.2003 6.13991 19.6181 5.35478 18.9108 4.64747Z" fill="white" stroke="white" stroke-width="0.5"/>
</svg>
