<svg width="23" height="23" viewBox="0 0 23 23" fill="none" xmlns="http://www.w3.org/2000/svg">
<path fill-rule="evenodd" clip-rule="evenodd" d="M10.9053 21.8106C4.88247 21.8106 0 16.9281 0 10.9053C0 4.88247 4.88247 0 10.9053 0C16.9281 0 21.8106 4.88247 21.8106 10.9053C21.8106 13.4702 20.9251 15.8283 19.4431 17.6906L22.637 20.8845C23.121 21.3684 23.121 22.1531 22.637 22.637C22.1531 23.121 21.3684 23.121 20.8845 22.637L17.6906 19.4431C15.8283 20.9251 13.4702 21.8106 10.9053 21.8106ZM10.9053 20.3235C16.1068 20.3235 20.3235 16.1068 20.3235 10.9053C20.3235 5.70375 16.1068 1.48709 10.9053 1.48709C5.70375 1.48709 1.48709 5.70375 1.48709 10.9053C1.48709 16.1068 5.70375 20.3235 10.9053 20.3235Z" fill="white"/>
</svg>
