<svg width="27" height="27" viewBox="0 0 27 27" fill="none" xmlns="http://www.w3.org/2000/svg">
<path fill-rule="evenodd" clip-rule="evenodd" d="M4.15864 7.29662C4.49197 6.7857 4.86683 6.30515 5.2782 5.85998L6.34788 6.2851C8.55983 7.16418 11.0509 5.96709 11.7471 3.69049L12.1159 2.48472C12.4202 2.45819 12.7287 2.44459 13.0408 2.44459C13.3009 2.44459 13.5585 2.45403 13.8133 2.47254L14.1858 3.69049C14.882 5.96709 17.3731 7.16418 19.585 6.2851L20.7633 5.81686C21.1595 6.24115 21.5226 6.69807 21.8479 7.18323L20.9844 8.51353C19.7327 10.4415 20.3227 13.0228 22.2874 14.2154L23.5579 14.9866C23.4618 15.6026 23.3147 16.2006 23.1213 16.7763L21.8119 16.8874C19.4857 17.0851 17.8012 19.194 18.1218 21.507L18.2872 22.6992C17.7508 23.0087 17.1859 23.2719 16.5981 23.4836L15.9787 22.803C14.3628 21.0276 11.5701 21.0276 9.95421 22.803L9.37206 23.4428C8.77396 23.2196 8.20039 22.943 7.65692 22.6185L7.81106 21.507C8.13182 19.194 6.44724 17.0851 4.121 16.8874L2.96466 16.7893C2.76039 16.1839 2.60736 15.5538 2.51102 14.904L3.64549 14.2154C5.61018 13.0228 6.2001 10.4415 4.94857 8.51353L4.15864 7.29662ZM4.01271 3.65974C4.44222 3.24508 5.07892 3.1503 5.63366 3.37077L7.25032 4.01326C8.1351 4.36489 9.13152 3.88606 9.41002 2.97541L9.94813 1.21584C10.1198 0.654463 10.579 0.220644 11.1598 0.135943C11.774 0.0463604 12.4021 0 13.0408 0C13.619 0 14.1884 0.037994 14.7468 0.111654C15.336 0.189375 15.8045 0.626385 15.9784 1.19482L16.5229 2.97541C16.8014 3.88606 17.7977 4.36489 18.6826 4.01326L20.4045 3.32892C20.9567 3.10947 21.5903 3.20226 22.02 3.61278C22.8891 4.44329 23.6462 5.39302 24.2657 6.43616C24.5614 6.93396 24.5209 7.55456 24.2056 8.04021L23.0341 9.84479C22.5336 10.616 22.7695 11.6485 23.5553 12.1255L25.316 13.1942C25.8177 13.4988 26.1248 14.0508 26.0661 14.635C25.9394 15.8952 25.6388 17.1032 25.1891 18.2341C24.9759 18.7698 24.4627 19.1157 23.8884 19.1645L22.0187 19.3234C21.0882 19.4024 20.4144 20.246 20.5427 21.1712L20.7872 22.9352C20.8681 23.517 20.6338 24.104 20.1428 24.4261C19.0955 25.1128 17.9452 25.6521 16.7207 26.015C16.1626 26.1803 15.5684 25.9838 15.1766 25.5532L14.1714 24.4487C13.525 23.7385 12.4079 23.7385 11.7615 24.4487L10.7887 25.5177C10.393 25.9525 9.79122 26.1484 9.22943 25.9753C7.99432 25.5949 6.83653 25.0346 5.78578 24.3242C5.30548 23.9996 5.07843 23.4194 5.15807 22.8451L5.39022 21.1712C5.51853 20.246 4.8447 19.4024 3.9142 19.3234L2.19825 19.1775C1.62453 19.1288 1.11186 18.7836 0.898371 18.2487C0.433959 17.0853 0.127571 15.8397 0.0061851 14.5395C-0.0480404 13.9587 0.258579 13.4118 0.757137 13.1091L2.37751 12.1255C3.16339 11.6485 3.39935 10.616 2.89875 9.84479L1.80519 8.16014C1.49339 7.67981 1.44991 7.06706 1.73655 6.5713C2.35899 5.4947 3.12681 4.51494 4.01271 3.65974ZM10.998 13.0378C10.998 11.9127 11.9099 11.0007 13.0347 11.0007C14.1595 11.0007 15.0714 11.9127 15.0714 13.0378C15.0714 14.1629 14.1595 15.075 13.0347 15.075C11.9099 15.075 10.998 14.1629 10.998 13.0378ZM13.0347 8.55608C10.5601 8.55608 8.55402 10.5626 8.55402 13.0378C8.55402 15.513 10.5601 17.5196 13.0347 17.5196C15.5093 17.5196 17.5154 15.513 17.5154 13.0378C17.5154 10.5626 15.5093 8.55608 13.0347 8.55608Z" fill="black"/>
</svg>
